<?xml version="1.0" encoding="UTF-8"?>
<svg width="600" height="300" viewBox="0 0 600 300" fill="none" xmlns="http://www.w3.org/2000/svg">
  <rect width="600" height="300" fill="#6c63ff"/>
  <!-- Cityscape -->
  <g opacity="0.3">
    <rect x="40" y="120" width="40" height="100" fill="#fff"/>
    <rect x="90" y="100" width="30" height="120" fill="#fff"/>
    <rect x="130" y="140" width="30" height="80" fill="#fff"/>
    <rect x="170" y="110" width="50" height="110" fill="#fff"/>
    <rect x="230" y="130" width="30" height="90" fill="#fff"/>
    <rect x="270" y="90" width="40" height="130" fill="#fff"/>
    <rect x="320" y="150" width="30" height="70" fill="#fff"/>
    <rect x="360" y="120" width="50" height="100" fill="#fff"/>
    <rect x="420" y="140" width="30" height="80" fill="#fff"/>
    <rect x="460" y="110" width="40" height="110" fill="#fff"/>
    <rect x="510" y="130" width="30" height="90" fill="#fff"/>
  </g>
  <!-- Road -->
  <rect y="250" width="600" height="30" fill="#44408a"/>
  <rect y="265" width="600" height="5" fill="#fff" opacity="0.2"/>
  <!-- Bus -->
  <g>
    <rect x="120" y="190" width="320" height="50" rx="10" fill="#fff" stroke="#222" stroke-width="2"/>
    <rect x="140" y="200" width="280" height="30" rx="6" fill="#d1d1d1"/>
    <rect x="150" y="210" width="60" height="15" rx="3" fill="#44408a"/>
    <rect x="220" y="210" width="60" height="15" rx="3" fill="#44408a"/>
    <rect x="290" y="210" width="60" height="15" rx="3" fill="#44408a"/>
    <rect x="360" y="210" width="50" height="15" rx="3" fill="#44408a"/>
    <circle cx="150" cy="245" r="13" fill="#222"/>
    <circle cx="370" cy="245" r="13" fill="#222"/>
    <circle cx="150" cy="245" r="7" fill="#bbb"/>
    <circle cx="370" cy="245" r="7" fill="#bbb"/>
  </g>
</svg> 